<svg width="137" height="40" viewBox="0 0 137 40" fill="none" xmlns="http://www.w3.org/2000/svg">
<path d="M14.9525 0.0766274C16.8951 0.0766274 18.6842 0.255428 20.3201 0.613028C22.007 0.91954 23.4895 1.27714 24.7675 1.68582C26.25 2.19668 27.6046 2.73308 28.8315 3.29502L24.9975 11.8774C24.5886 11.673 24.0518 11.4176 23.3873 11.1111C22.7738 10.8046 22.0837 10.4981 21.3169 10.1916C20.6012 9.88506 19.8344 9.62963 19.0165 9.42529C18.1986 9.22095 17.4063 9.11877 16.6395 9.11877C15.8215 9.11877 15.1314 9.29757 14.5691 9.65517C14.0068 10.0128 13.7256 10.5747 13.7256 11.341C13.7256 12.1584 14.2368 12.9757 15.2592 13.7931C16.3327 14.5594 17.7385 15.3001 19.4766 16.0153C22.5438 17.2925 24.8953 18.825 26.5311 20.613C28.2181 22.3499 29.0616 24.6999 29.0616 27.6628C29.0616 29.2976 28.7548 30.8812 28.1414 32.4138C27.5791 33.8953 26.71 35.198 25.5343 36.3218C24.4097 37.4457 22.9783 38.3397 21.2402 39.0038C19.5022 39.6679 17.5085 40 15.2592 40C13.47 40 11.7831 39.8723 10.1984 39.6169C8.66479 39.3614 7.23344 39.0549 5.90433 38.6973C4.62633 38.2886 3.47614 37.9055 2.45375 37.5479C1.43135 37.1392 0.613436 36.7816 0 36.4751L3.98734 27.6628C4.24294 27.765 4.67745 27.9949 5.29089 28.3525C5.95545 28.7101 6.69668 29.0677 7.5146 29.4253C8.38363 29.7829 9.27822 30.1149 10.1984 30.4215C11.1697 30.6769 12.0898 30.8046 12.9588 30.8046C14.0324 30.8046 14.9014 30.6003 15.5659 30.1916C16.2816 29.7829 16.6395 29.1699 16.6395 28.3525C16.6395 27.3819 16.2049 26.5134 15.3359 25.7471C14.518 24.9808 13.4445 24.3423 12.1154 23.8314C8.28139 22.2988 5.52093 20.5875 3.83398 18.6973C2.19815 16.7561 1.38023 14.355 1.38023 11.4943C1.38023 9.85951 1.68695 8.35249 2.30039 6.97318C2.91382 5.59387 3.80842 4.39336 4.98417 3.37165C6.15992 2.34994 7.56572 1.55811 9.20155 0.996169C10.8885 0.383141 12.8055 0.0766274 14.9525 0.0766274Z" fill="#4F00AF"/>
<path d="M56.1947 0.766283H68.3101V20.7663C68.3101 23.8314 68.5146 26.3857 68.9235 28.4291C69.3325 30.4725 69.8181 32.1073 70.3804 33.3333C70.9939 34.8148 71.7096 35.9642 72.5275 36.7816L62.7892 39.8467C62.3291 39.387 61.869 38.7995 61.4089 38.0843C61 37.5223 60.591 36.8071 60.1821 35.9387C59.7731 35.0192 59.4408 33.9719 59.1852 32.7969C57.8561 35.198 56.0158 36.9604 53.6643 38.0843C51.3639 39.1571 48.8591 39.6935 46.1497 39.6935C44.156 39.6935 42.4435 39.387 41.0122 38.7739C39.6319 38.1098 38.4818 37.2158 37.5616 36.092C36.6926 34.917 36.0536 33.5121 35.6446 31.8774C35.2868 30.2427 35.1079 28.4036 35.1079 26.3602V0.766283H47.2999V24.751C47.2999 26.5389 47.5044 27.9949 47.9133 29.1188C48.3734 30.1916 49.1913 30.728 50.3671 30.728C51.7984 30.728 53.1275 29.7829 54.3544 27.8927C55.5813 25.9515 56.1947 23.295 56.1947 19.9234V0.766283Z" fill="#4F00AF"/>
<path d="M97.3441 11.8008C96.7818 11.8008 96.1683 11.954 95.5038 12.2605C94.8392 12.567 94.2002 13.0524 93.5868 13.7165C92.9734 14.3295 92.4622 15.1469 92.0532 16.1686C91.6442 17.1392 91.4398 18.3142 91.4398 19.6935V39.2337H79.3244V19.3103C79.3244 16.2452 79.0944 13.7165 78.6343 11.7241C78.2253 9.68071 77.7397 8.02043 77.1774 6.74329C76.5639 5.3129 75.8738 4.16347 75.107 3.29502L84.8453 0.229887C85.2543 0.740742 85.6888 1.32823 86.1489 1.99234C86.5067 2.55428 86.8901 3.26948 87.2991 4.13793C87.708 5.00639 88.0403 6.00255 88.2959 7.12644C89.5739 4.67433 91.0819 2.91188 92.82 1.83908C94.6092 0.766284 96.7051 0.229887 99.1077 0.229887C100.181 0.229887 101.127 0.332058 101.945 0.536401C102.814 0.689655 103.53 0.868454 104.092 1.0728L100.948 12.6437C100.59 12.4393 100.105 12.2605 99.4911 12.1073C98.9288 11.9029 98.2131 11.8008 97.3441 11.8008Z" fill="#4F00AF"/>
<path d="M104.104 21.0728C104.104 17.6501 104.59 14.636 105.561 12.0307C106.584 9.3742 107.964 7.17752 109.702 5.44061C111.491 3.65262 113.562 2.29885 115.913 1.37931C118.265 0.45977 120.821 0 123.581 0C125.984 0 128.028 0.306514 129.715 0.919542C131.402 1.48148 132.783 2.29885 133.856 3.37165C134.93 4.39336 135.722 5.61941 136.233 7.04981C136.744 8.42912 137 9.93614 137 11.5709C137 13.41 136.54 15.1469 135.62 16.7816C134.7 18.4163 133.37 19.8723 131.632 21.1494C129.945 22.3755 127.875 23.3972 125.421 24.2146C123.019 25.0319 120.284 25.5683 117.217 25.8238C117.575 27.3563 118.214 28.6079 119.134 29.5785C120.105 30.4981 121.562 30.9579 123.504 30.9579C124.629 30.9579 125.83 30.8301 127.108 30.5747C128.386 30.3193 129.562 30.0383 130.636 29.7318C131.914 29.3742 133.166 28.9655 134.393 28.5057L136.693 36.4751C135.313 37.1392 133.805 37.7267 132.169 38.2375C130.789 38.6462 129.179 39.0294 127.338 39.387C125.549 39.7446 123.632 39.9234 121.587 39.9234C118.469 39.9234 115.785 39.4636 113.536 38.5441C111.338 37.6245 109.523 36.3474 108.092 34.7126C106.712 33.0779 105.689 31.1111 105.025 28.8123C104.411 26.4623 104.104 23.8825 104.104 21.0728ZM122.047 8.659C121.076 8.659 120.233 8.93997 119.517 9.50192C118.853 10.0639 118.316 10.8046 117.907 11.7241C117.498 12.6437 117.191 13.6654 116.987 14.7893C116.782 15.9132 116.654 17.0115 116.603 18.0843C118.137 18.0332 119.415 17.8033 120.437 17.3946C121.511 16.986 122.38 16.4751 123.044 15.8621C123.709 15.249 124.195 14.5849 124.501 13.8697C124.808 13.1545 124.961 12.4904 124.961 11.8774C124.961 10.9068 124.68 10.1405 124.118 9.57854C123.607 8.96552 122.917 8.659 122.047 8.659Z" fill="#4F00AF"/>
</svg>
